<svg id="圖層_1" data-name="圖層 1" xmlns="http://www.w3.org/2000/svg" viewBox="0 0 280.32 280.32"><path d="M135.29,245.43c-24.23-.56-43-10.07-57.53-28.12A18.77,18.77,0,0,1,76,214.72c-3.49-6.05-1.57-11.95,4.82-14.81A48.28,48.28,0,0,1,91.45,197c11.92-2.34,19.89-9.58,25.36-20,1.19-2.27,2.26-4.59,3.44-6.85,1.72-3.31,3.55-4,7.07-2.26a30.09,30.09,0,0,0,14.07,3.23,26.83,26.83,0,0,0,13.6-4c.81-.49,1.62-1,2.48-1.44,2.2-1.06,3.37-.71,4.49,1.48a70.65,70.65,0,0,1,4.52,12.09,89.22,89.22,0,0,1,4,22.33c.34,9-.59,17.92-4.52,26.17-4.89,10.28-13.35,15.77-24.52,17.23A35.36,35.36,0,0,1,135.29,245.43Z"/><path d="M243.54,149.92c-.58,17.42-7,32.52-18.2,45.77a53.55,53.55,0,0,1-11.74,10.49c-6.47,4.24-13.38,1.88-16-5.4a36.15,36.15,0,0,1-1.77-6.7c-2-12.77-8.79-22-20.17-28a56.62,56.62,0,0,0-7-3.58c-3.72-1.33-4.66-3.66-2.63-7.12,3.9-6.68,3.63-13.73,2.19-20.9-.69-3.41-2.5-6.35-4.39-9.24-1.39-2.14-1.1-3.4,1.22-4.4,17-7.35,34.36-11.38,52.88-6.9,14.74,3.56,23.09,12.79,25.08,27.83A48.08,48.08,0,0,1,243.54,149.92Z"/><path d="M110.28,79.52c.39-7.1,1.08-14.88,4.27-22.19,4.4-10.07,12.55-15.11,23-17.17,16.88-3.34,32.06,1.48,46.43,9.8a66,66,0,0,1,18.54,16.43c3,3.76,5.41,7.72,3.24,12.69s-6.79,6.53-11.66,7.22c-9.52,1.34-17.7,5.14-24.15,12.42a56,56,0,0,0-9,14.66c-2,4.42-3.49,5-7.78,3-9.8-4.54-19.31-4.09-28.53,1.62-3.84,2.37-4.62,2.1-6.34-2A98.44,98.44,0,0,1,110.28,79.52Z"/><path d="M77.63,172.14A55.22,55.22,0,0,1,60.92,170c-13.11-3.6-20.47-12.27-22.63-25.58C34.89,123.54,42,105.83,54.62,89.8A66.16,66.16,0,0,1,65.69,79.26c7.23-5.73,15-3.41,17.9,5.37a17.24,17.24,0,0,1,.8,3.24C86.2,103,94.57,113.3,107.9,120c1.5.75,3.06,1.36,4.57,2.09,3.31,1.61,4,3.16,2.51,6.52a35.68,35.68,0,0,0-3.29,11.2,28.83,28.83,0,0,0,4.67,18.43c2.24,3.49,1.9,4.48-2,6C102.84,168.85,91,172.38,77.63,172.14Z"/><path d="M118.25,142.05c0-11.83,10.24-22,22.27-22.16,11.66-.13,22,10.41,22,22.4a22.15,22.15,0,1,1-44.3-.24Z"/></svg>