<svg id="圖層_1" data-name="圖層 1" xmlns="http://www.w3.org/2000/svg" viewBox="0 0 280.32 280.32"><path d="M202.46,172q-15.08-36.66-30.2-73.27c-1.07-2.59-2.09-5.38-5.61-5.39s-4.37,2.83-5.37,5.3q-14.7,35.11-29.34,70.26c-2.41,5.78-4.18,11.73-4.09,18.66,0,23.9,23,42.41,46.84,37.25C197.46,219.88,212,195.13,202.46,172Zm-17.93,37.11a4.16,4.16,0,0,1-2.07,1.14,2,2,0,0,1-2.11-.78,1.69,1.69,0,0,1,0-2.21c1-1.09,2-2.09,3-3.09,6.53-6.5,8.71-14.22,6.71-23.22-.24-1.09-.55-2.17-.71-3.27-.2-1.26,0-2.45,1.5-2.8s2.08.57,2.51,1.68a26.33,26.33,0,0,1,2,9A29.36,29.36,0,0,1,184.53,209.14Z"/><path d="M101.6,96.11c-.6-1.43-1.49-2.76-3.28-2.69s-2.59,1.39-3.2,2.84c-6.26,15-13,29.88-18.57,45.16-3.42,9.21-1.31,17.64,6,24.21C89.71,172.07,98.2,174,107.2,170c8.8-3.86,13.8-10.76,14.14-20.62a20.48,20.48,0,0,0-1.36-8.27C114.24,125.94,107.89,111,101.6,96.11Zm10.54,52.06c.13,4.56-1.26,8.49-4.85,11.52a4.79,4.79,0,0,1-2,1.18,2,2,0,0,1-2.33-.81,1.72,1.72,0,0,1,.23-2.2c.52-.61,1.09-1.18,1.6-1.78,2.76-3.26,3.95-6.92,2.6-11.12-.57-1.7-.46-3.1,1.43-3.7s2.43,1,2.89,2.4A14.87,14.87,0,0,1,112.14,148.17Z"/><path d="M132.72,100.55c6.52-1.48,10.63-6.73,10.63-13.73a9,9,0,0,0-.53-3.82q-5.12-12.77-10.28-25.55a2.46,2.46,0,0,0-2.25-1.87c-1.26,0-1.76.94-2.18,1.94-3.71,8.66-7.5,17.28-10.65,26.16a11.52,11.52,0,0,0,.39,8.87C120.46,98.36,127,101.84,132.72,100.55Z"/></svg>