<svg id="圖層_1" data-name="圖層 1" xmlns="http://www.w3.org/2000/svg" viewBox="0 0 280.32 280.32"><path d="M166.48,179.25A70.34,70.34,0,0,0,162,167.16c-1.12-2.19-2.29-2.54-4.49-1.48-.86.44-1.67.95-2.48,1.44a26.81,26.81,0,0,1-13.6,4,30.14,30.14,0,0,1-14.07-3.23c-3.52-1.74-5.35-1-7.07,2.26-1.18,2.26-2.25,4.58-3.44,6.85-5.47,10.42-13.44,17.66-25.36,20a48.4,48.4,0,0,0-10.63,2.91c-6.39,2.86-8.31,8.76-4.82,14.81a18.17,18.17,0,0,0,1.76,2.59c14.53,18.05,33.3,27.56,57.53,28.12a35.16,35.16,0,0,0,6.15-.45c11.17-1.46,19.63-6.95,24.52-17.23,3.93-8.25,4.86-17.17,4.52-26.17A89.24,89.24,0,0,0,166.48,179.25Z"/><path d="M243,141.77c-2-15-10.34-24.27-25.08-27.83-18.52-4.48-35.88-.45-52.88,6.9-2.32,1-2.61,2.26-1.22,4.4,1.89,2.89,3.7,5.83,4.39,9.24,1.44,7.17,1.71,14.22-2.19,20.9-2,3.46-1.09,5.79,2.63,7.12a57.66,57.66,0,0,1,7,3.58c11.38,6,18.17,15.23,20.17,28a36.15,36.15,0,0,0,1.77,6.7c2.62,7.28,9.53,9.64,16,5.4a53.55,53.55,0,0,0,11.74-10.49c11.2-13.25,17.62-28.35,18.2-45.77A48.32,48.32,0,0,0,243,141.77Z"/><path d="M124.64,118c9.22-5.71,18.73-6.16,28.53-1.62,4.29,2,5.78,1.42,7.78-3a56,56,0,0,1,9-14.66c6.45-7.28,14.63-11.08,24.15-12.42,4.87-.69,9.49-2.25,11.66-7.22s-.24-8.93-3.24-12.69A66.06,66.06,0,0,0,184,50c-14.37-8.32-29.55-13.14-46.43-9.8-10.45,2.06-18.6,7.1-23,17.17-3.19,7.31-3.88,15.09-4.27,22.19a98.38,98.38,0,0,0,8,36.48C120,120.1,120.8,120.37,124.64,118Z"/><path d="M77.63,172.14c13.37.24,25.21-3.29,36.73-7.9,3.9-1.52,4.24-2.51,2-6a28.83,28.83,0,0,1-4.67-18.43,35.68,35.68,0,0,1,3.29-11.2c1.49-3.36.8-4.91-2.51-6.52-1.51-.73-3.07-1.34-4.57-2.09-13.33-6.7-21.7-17-23.51-32.13a17.24,17.24,0,0,0-.8-3.24c-2.9-8.78-10.67-11.1-17.9-5.37A66.14,66.14,0,0,0,54.62,89.8c-12.62,16-19.73,33.74-16.33,54.62,2.16,13.31,9.52,22,22.63,25.58A55.19,55.19,0,0,0,77.63,172.14Z"/><path d="M140.52,119.89c-12,.16-22.27,10.33-22.27,22.16h0a22.15,22.15,0,0,0,44.3.24C162.52,130.3,152.18,119.76,140.52,119.89Z"/></svg>