<svg id="圖層_1" data-name="圖層 1" xmlns="http://www.w3.org/2000/svg" viewBox="0 0 280.32 280.32"><path d="M127.85,187.59c-.09-6.93,1.68-12.88,4.09-18.66q14.64-35.15,29.34-70.26c1-2.47,1.85-5.31,5.37-5.3s4.54,2.8,5.61,5.39q15.12,36.61,30.2,73.27c9.52,23.1-5,47.85-27.77,52.81C150.85,230,127.8,211.49,127.85,187.59Zm67.51-2a26.3,26.3,0,0,0-2-9c-.43-1.11-1.11-2-2.51-1.68-1.55.35-1.7,1.54-1.5,2.8.16,1.1.47,2.18.71,3.27,2,9-.18,16.72-6.71,23.22-1,1-2,2-3,3.09a1.68,1.68,0,0,0,0,2.21,2,2,0,0,0,2.11.78,4.16,4.16,0,0,0,2.07-1.14A29.37,29.37,0,0,0,195.36,185.56Z"/><path d="M121.34,149.38C121,159.24,116,166.14,107.2,170c-9,4-17.49,2.07-24.65-4.37-7.31-6.57-9.42-15-6-24.21,5.6-15.28,12.31-30.14,18.57-45.16.61-1.45,1.41-2.77,3.2-2.84s2.68,1.26,3.28,2.69c6.29,14.93,12.64,29.83,18.38,45A20.38,20.38,0,0,1,121.34,149.38Zm-9.2-1.21a14.9,14.9,0,0,0-.43-4.51c-.46-1.41-1-3-2.89-2.4s-2,2-1.43,3.7c1.35,4.2.16,7.86-2.6,11.12-.51.6-1.08,1.17-1.6,1.78a1.72,1.72,0,0,0-.23,2.2,2,2,0,0,0,2.33.81,4.7,4.7,0,0,0,2-1.18C110.88,156.66,112.27,152.73,112.14,148.17Z"/><path d="M143.35,86.82c0,7-4.11,12.25-10.63,13.73-5.74,1.29-12.26-2.19-14.87-8a11.48,11.48,0,0,1-.39-8.87c3.15-8.88,6.94-17.5,10.65-26.16.42-1,.92-1.94,2.18-1.94a2.46,2.46,0,0,1,2.25,1.87Q137.7,70.23,142.82,83A9,9,0,0,1,143.35,86.82Z"/></svg>